<svg width="36" height="36" viewBox="0 0 36 36" fill="none" xmlns="http://www.w3.org/2000/svg">
<path d="M19.4109 17.9973L26.701 10.7073C26.8648 10.516 26.9504 10.27 26.9407 10.0183C26.9309 9.7666 26.8266 9.52786 26.6485 9.34977C26.4704 9.17167 26.2317 9.06734 25.98 9.05762C25.7283 9.0479 25.4823 9.13351 25.291 9.29733L18.0009 16.5873L10.711 9.28733C10.5196 9.12351 10.2736 9.0379 10.0219 9.04762C9.77022 9.05734 9.53148 9.16167 9.35339 9.33977C9.17529 9.51786 9.07096 9.7566 9.06124 10.0083C9.05152 10.26 9.13712 10.506 9.30095 10.6973L16.591 17.9973L9.29095 25.2873C9.18627 25.377 9.10125 25.4873 9.04122 25.6114C8.9812 25.7354 8.94747 25.8706 8.94215 26.0083C8.93683 26.146 8.96004 26.2833 9.01031 26.4117C9.06059 26.54 9.13685 26.6565 9.2343 26.754C9.33175 26.8514 9.4483 26.9277 9.57663 26.978C9.70495 27.0282 9.84228 27.0514 9.98 27.0461C10.1177 27.0408 10.2529 27.0071 10.3769 26.9471C10.501 26.887 10.6113 26.802 10.701 26.6973L18.0009 19.4073L25.291 26.6973C25.4823 26.8612 25.7283 26.9468 25.98 26.937C26.2317 26.9273 26.4704 26.823 26.6485 26.6449C26.8266 26.4668 26.9309 26.2281 26.9407 25.9764C26.9504 25.7247 26.8648 25.4786 26.701 25.2873L19.4109 17.9973Z" fill="white"/>
</svg>
