<svg width="19" height="19" viewBox="0 0 19 19" fill="none" xmlns="http://www.w3.org/2000/svg">
<path d="M11.41 8.99928L18.7 1.70928C18.8638 1.51798 18.9494 1.27191 18.9397 1.02023C18.93 0.768555 18.8257 0.529816 18.6476 0.351722C18.4695 0.173627 18.2307 0.0692943 17.9791 0.0595732C17.7274 0.049852 17.4813 0.135459 17.29 0.299285L10 7.58928L2.71 0.289285C2.5187 0.125458 2.27263 0.0398528 2.02095 0.0495739C1.76927 0.0592951 1.53054 0.163627 1.35244 0.341722C1.17435 0.519816 1.07001 0.758555 1.06029 1.01023C1.05057 1.26191 1.13618 1.50798 1.3 1.69928L8.59 8.99928L1.29 16.2893C1.18532 16.3789 1.1003 16.4893 1.04028 16.6133C0.980256 16.7374 0.946525 16.8725 0.941205 17.0102C0.935886 17.1479 0.959092 17.2853 1.00937 17.4136C1.05964 17.5419 1.1359 17.6585 1.23335 17.7559C1.33081 17.8534 1.44736 17.9296 1.57568 17.9799C1.70401 18.0302 1.84134 18.0534 1.97906 18.0481C2.11678 18.0428 2.25191 18.009 2.37597 17.949C2.50004 17.889 2.61036 17.804 2.7 17.6993L10 10.4093L17.29 17.6993C17.4813 17.8631 17.7274 17.9487 17.9791 17.939C18.2307 17.9293 18.4695 17.8249 18.6476 17.6468C18.8257 17.4688 18.93 17.23 18.9397 16.9783C18.9494 16.7267 18.8638 16.4806 18.7 16.2893L11.41 8.99928Z" fill="#8A8A8A"/>
</svg>
