<svg version="1.1" id="Layer_1" xmlns="http://www.w3.org/2000/svg" xmlns:xlink="http://www.w3.org/1999/xlink" x="0px" y="0px" viewBox="0 0 600 142" enable-background="new 0 0 600 142" xml:space="preserve">
					  <g>
						  <path fill="none" stroke="#050505" stroke-width="0.2117" d="M350.1,58.9"></path>
						  <path d="M118.9,61.9l1.8-5.7c0,0,11.4-29.8,36.7-36.3c0.8,0.2,0.3,4.1,0.3,4.1s-3.2,1.5-5,2.7c-10.7,6.9-24.8,14.9-30.1,36.7
							  C122.5,63.4,118.9,61.9,118.9,61.9z"></path>
						  <path d="M62.9,61.6l-2-5.4c0,0-11.9-30.1-36.9-35.7c-0.8,0.2-0.9,4.7-0.9,4.7s3.8,0.9,5.6,2c10.7,6.8,24.4,14.6,29.7,36.1
							  C63.1,61.4,62.9,61.6,62.9,61.6z"></path>
						  <ellipse fill="#FF000D" cx="19.6" cy="21.5" rx="5.9" ry="5.6"></ellipse>
						  <ellipse fill="#FF000D" cx="156.2" cy="21.7" rx="5.9" ry="5.6"></ellipse>
						  <path fill="#FFFFFF" stroke="#000000" stroke-width="0.2117" d="M99.9,30.6"></path>
						  <path d="M22.7,88.4c0,0,62.2-17.2,137,0.6l-50.1,15.8h-37L22.7,88.4z"></path>
						  <path fill="none" stroke="#050505" stroke-width="0.2117" d="M87.9,106.1"></path>
						  <path d="M58.4,63.4c0,0,26.2-17.2,64,0H58.4z"></path>
						  <path fill="#F42F32" d="M46.8,61.1"></path>
						  
							  <ellipse transform="matrix(1.491988e-002 -0.9999 0.9999 1.491988e-002 -15.2115 194.4259)" fill="#FF000D" cx="91.1" cy="104.9" rx="3.9" ry="18.2"></ellipse>
						  <g>
							  <path d="M23.3,88.7l-0.8-0.2c0.2-0.2,20.5-15.5,36.1-19.9l0.2,0.6C43.4,73.5,23.5,88.5,23.3,88.7z"></path>
						  </g>
						  <g>
							  <path d="M159,89.1l0.8-0.2c-0.2-0.2-20.5-15.5-36.1-19.9l-0.2,0.5C138.9,73.9,158.8,89,159,89.1z"></path>
						  </g>
						  <path fill="none" stroke="#000000" stroke-width="0.8469" stroke-miterlimit="10" d="M62.5,62.2c0-8.4,11.4-22.4,28.4-22.4
							  s28.8,14,28.8,22.4H62.5z"></path>
						  <path fill="none" stroke="#000000" stroke-width="0.4235" d="M91.5,99.4"></path>
						  <polygon fill="#020202" points="56.9,69.7 124.3,69.6 122.8,63.1 58.4,63.2 	"></polygon>
						  <g>
							  <path fill="#F2651B" d="M177.5,88.2c-0.6,0.6-1.4,0.9-2.3,0.9c-0.9,0-1.7-0.3-2.3-0.9c-0.6-0.6-0.9-1.4-0.9-2.3V63.5
								  c0-0.9,0.3-1.7,0.9-2.3c0.6-0.6,1.4-0.9,2.3-0.9c0.9,0,1.7,0.3,2.3,0.9c0.6,0.6,0.9,1.4,0.9,2.3V86
								  C178.4,86.9,178.1,87.6,177.5,88.2z"></path>
							  <path fill="#F2651B" d="M225.3,82.8c1.5,0,2.7-0.3,3.8-0.8c0.9-0.6,1.7-1.2,2.3-2s0.9-1.7,1.1-2.6c0.2-0.9,0.3-1.8,0.3-2.6
								  c0-0.8-0.2-1.7-0.3-2.6c-0.2-0.9-0.6-1.8-1.1-2.6c-0.6-0.8-1.4-1.5-2.3-2c-0.9-0.6-2.3-0.8-3.8-0.8h-37.2c-0.9,0-1.7-0.3-2.3-0.9
								  c-0.6-0.6-0.9-1.4-0.9-2.3c0-0.9,0.3-1.7,0.9-2.3c0.6-0.6,1.4-0.9,2.3-0.9h38.5c2,0,3.6,0.5,5.1,1.4c1.5,0.9,2.7,2,3.8,3.5
								  c1.1,1.4,1.8,2.9,2.4,4.7c0.6,1.7,0.8,3.3,0.8,5.1c0,1.7-0.3,3.3-0.8,5c-0.6,1.7-1.4,3.2-2.3,4.5c-1.1,1.4-2.3,2.6-3.6,3.5
								  s-3,1.4-4.8,1.5h-39.1c-0.9,0-1.7-0.3-2.3-0.9c-0.6-0.6-0.9-1.4-0.9-2.3V75.4c0-0.9,0.3-1.7,0.9-2.3s1.4-0.9,2.3-0.9
								  c0.9,0,1.7,0.3,2.3,0.9c0.6,0.6,0.9,1.4,0.9,2.3v8.1h34V82.8z"></path>
							  <path fill="#F2651B" d="M310.8,87.9c-0.6,0.8-1.5,1.2-2.4,1.2s-1.7-0.3-2.3-0.9c-0.6-0.6-0.9-1.4-0.9-2.3c0-0.8,0.2-1.5,0.6-2
								  L322,62.5c0.8-1.1,1.8-1.8,3-2.4c1.2-0.6,2.6-0.9,3.9-0.9s2.6,0.3,3.8,0.9c1.2,0.6,2.1,1.4,2.9,2.4L351.6,84
								  c0.3,0.3,0.5,0.6,0.6,1.1c0.2,0.3,0.3,0.8,0.3,1.2c0,0.9-0.3,1.7-0.9,2.3c-0.6,0.6-1.4,0.9-2.3,0.9c-1.1,0-2-0.5-2.6-1.2
								  l-15.4-20.5c-0.3-0.3-0.8-0.8-1.2-1.2c-0.5-0.5-0.9-0.6-1.4-0.6c-0.5,0-0.9,0.2-1.4,0.6c-0.5,0.5-0.8,0.8-1.1,1.2L310.8,87.9z"></path>
							  <path d="M401.8,60.4c1.2,0,2.4,0.3,3.5,0.8c1.1,0.5,2,1.1,2.9,2c0.8,0.8,1.5,1.7,2,2.7s0.8,2.3,0.8,3.5c0,1.2-0.3,2.4-0.8,3.5
								  s-1.1,2-2,2.7c-0.8,0.8-1.8,1.4-2.9,2c-1.1,0.5-2.3,0.8-3.5,0.8h-36.4v8.1c0,0.9-0.3,1.7-0.9,2.3c-0.6,0.6-1.4,0.9-2.3,0.9
								  s-1.7-0.3-2.3-0.9c-0.6-0.6-0.9-1.4-0.9-2.3V63.5c0-0.9,0.3-1.7,0.9-2.3c0.6-0.6,1.4-0.9,2.3-0.9
								  C362.2,60.4,401.8,60.4,401.8,60.4z M365.3,66.7v4.8h36.6c0.6,0,1.2-0.3,1.8-0.8c0.5-0.5,0.8-1.1,0.8-1.8c0-0.6-0.3-1.2-0.8-1.7
								  c-0.5-0.5-1.1-0.8-1.8-0.8h-36.6V66.7z"></path>
							  <path d="M471,74.7c0,1.7-0.3,3.3-0.8,5.1c-0.6,1.7-1.4,3.2-2.4,4.7c-1.1,1.4-2.4,2.6-3.8,3.5c-1.5,0.9-3.2,1.4-5.1,1.4h-30.1
								  c-1.8-0.2-3.5-0.6-4.8-1.5c-1.4-0.9-2.6-2.1-3.6-3.5c-1.1-1.4-1.8-2.9-2.3-4.5c-0.6-1.7-0.8-3.3-0.8-5s0.3-3.3,0.8-5.1
								  c0.6-1.7,1.4-3.2,2.4-4.7c1.1-1.4,2.3-2.6,3.8-3.5c1.5-0.9,3.2-1.4,5.1-1.4h30.1c1.8,0.2,3.5,0.6,4.8,1.5c1.4,0.9,2.6,2.1,3.6,3.5
								  c1.1,1.4,1.8,2.9,2.3,4.5C470.8,71.4,471,73,471,74.7z M461.2,81.9c0.9-0.6,1.7-1.2,2.3-2c0.6-0.8,0.9-1.7,1.1-2.6
								  s0.3-1.8,0.3-2.6s-0.2-1.7-0.3-2.6s-0.6-1.8-1.1-2.6c-0.6-0.8-1.4-1.5-2.3-2c-0.9-0.6-2.3-0.8-3.8-0.8h-26.6
								  c-1.5,0-2.9,0.3-3.8,0.8c-0.9,0.6-1.7,1.2-2.3,2c-0.6,0.8-0.9,1.7-1.1,2.6c-0.2,0.9-0.3,1.8-0.3,2.6s0.2,1.7,0.3,2.6
								  c0.2,0.9,0.6,1.8,1.1,2.6c0.6,0.8,1.4,1.5,2.3,2c0.9,0.6,2.3,0.8,3.8,0.8h26.6C459,82.8,460.2,82.5,461.2,81.9z"></path>
							  <path d="M483.9,71.5h15.2c2.3,0,4.5-0.3,6.8-0.9c2.3-0.6,4.4-1.4,6.5-2.4c2.1-0.9,4.1-2.1,6-3.3c2-1.2,3.8-2.6,5.6-3.8
								  c0.8-0.6,1.5-0.9,2.3-0.9c0.9,0,1.7,0.3,2.3,0.9c0.6,0.6,0.9,1.4,0.9,2.3c0,0.6-0.2,1.2-0.6,1.7c-0.3,0.5-0.8,0.9-1.2,1.2
								  c-1.2,0.9-2.3,1.7-3.3,2.4c-1.1,0.8-2.1,1.5-3.2,2.1c-1.1,0.6-2.1,1.4-3.3,2c-1.1,0.6-2.3,1.2-3.6,1.8c1.2,0.6,2.4,1.2,3.6,1.8
								  c1.1,0.6,2.3,1.2,3.3,2c1.1,0.6,2.1,1.4,3.2,2.1c1.1,0.8,2.1,1.7,3.3,2.4c0.5,0.3,0.9,0.8,1.2,1.2c0.3,0.5,0.6,1.1,0.6,1.7
								  c0,0.9-0.3,1.7-0.9,2.3c-0.6,0.6-1.4,0.9-2.3,0.9c-0.8,0-1.5-0.3-2.3-0.9c-1.8-1.4-3.6-2.6-5.6-3.8c-2-1.2-3.9-2.3-6-3.3
								  c-2.1-0.9-4.2-1.8-6.5-2.3c-2.3-0.6-4.5-0.9-6.8-0.9h-15.2v8.1c0,0.9-0.3,1.7-0.9,2.3c-0.6,0.6-1.4,0.9-2.1,0.9
								  c-0.9,0-1.7-0.3-2.3-0.9c-0.6-0.6-0.9-1.4-0.9-2.3V63.5c0-0.9,0.3-1.7,0.9-2.3c0.6-0.6,1.4-0.9,2.1-0.9c0.9,0,1.7,0.3,2.3,0.9
								  c0.6,0.6,0.9,1.4,0.9,2.3V71.5z"></path>
						  </g>
						  <circle fill="#F2651B" cx="329.4" cy="80.5" r="3.6"></circle>
						  <g>
							  <path fill="#F2651B" d="M244.3,74.7c0-1.7,0.3-3.3,0.8-5.1c0.6-1.7,1.4-3.2,2.4-4.7c1.1-1.4,2.3-2.6,3.8-3.5
								  c1.5-0.9,3.2-1.4,5.1-1.4H295c0.9,0,1.7,0.3,2.3,0.9c0.6,0.6,0.9,1.4,0.9,2.3c0,0.9-0.3,1.7-0.9,2.3s-1.4,0.9-2.3,0.9h-37.2
								  c-1.5,0-2.9,0.3-3.8,0.8c-0.9,0.6-1.7,1.2-2.3,2s-0.9,1.7-1.1,2.6c-0.2,0.9-0.3,1.8-0.3,2.6c0,0.8,0.2,1.7,0.3,2.6
								  c0.2,0.9,0.6,1.8,1.1,2.6c0.6,0.8,1.4,1.5,2.3,2c0.9,0.6,2.3,0.8,3.8,0.8H295c0.9,0,1.7,0.3,2.3,0.9c0.6,0.6,0.9,1.4,0.9,2.3
								  s-0.3,1.7-0.9,2.3c-0.6,0.6-1.4,0.9-2.3,0.9h-39.1c-1.8,0-3.5-0.5-4.8-1.4c-1.4-0.9-2.6-2-3.6-3.5c-1.1-1.4-1.8-3-2.3-4.7
								  C244.6,78,244.3,76.3,244.3,74.7z"></path>
						  </g>
						  <path fill="#F2651B" d="M254.7,74.7c0-0.9,0.3-1.7,0.8-2.3s1.1-0.9,1.8-0.9h37.5c0.8,0,1.4,0.3,1.8,0.9c0.5,0.6,0.8,1.4,0.8,2.3
							  c0,0.9-0.3,1.7-0.8,2.3c-0.5,0.6-1.1,0.9-1.8,0.9h-37.5c-0.8,0-1.4-0.3-1.8-0.9C255,76.2,254.7,75.4,254.7,74.7z"></path>
						  <g>
							  <path d="M533.2,74.1c0-1.7,0.3-3.3,0.8-5.1c0.6-1.7,1.4-3.2,2.4-4.7c1.1-1.4,2.3-2.6,3.8-3.5c1.5-0.9,3.2-1.4,5.1-1.4h38.5
								  c0.9,0,1.7,0.3,2.3,0.9c0.6,0.6,0.9,1.4,0.9,2.3c0,0.9-0.3,1.7-0.9,2.3s-1.4,0.9-2.3,0.9h-37.2c-1.5,0-2.9,0.3-3.8,0.8
								  c-0.9,0.6-1.7,1.2-2.3,2c-0.6,0.8-0.9,1.7-1.1,2.6c-0.2,0.9-0.3,1.8-0.3,2.6c0,0.8,0.2,1.7,0.3,2.6c0.2,0.9,0.6,1.8,1.1,2.6
								  c0.6,0.8,1.4,1.5,2.3,2c0.9,0.6,2.3,0.8,3.8,0.8h37.2c0.9,0,1.7,0.3,2.3,0.9c0.6,0.6,0.9,1.4,0.9,2.3s-0.3,1.7-0.9,2.3
								  c-0.6,0.6-1.4,0.9-2.3,0.9h-39.1c-1.8,0-3.5-0.5-4.8-1.4c-1.4-0.9-2.6-2-3.6-3.5c-1.1-1.4-1.8-3-2.3-4.7
								  C533.5,77.4,533.2,75.7,533.2,74.1z"></path>
						  </g>
						  <path d="M543.6,73.9c0-0.9,0.3-1.7,0.8-2.3c0.5-0.6,1.1-0.9,1.8-0.9h37.5c0.8,0,1.4,0.3,1.8,0.9s0.8,1.4,0.8,2.3
							  c0,0.9-0.3,1.7-0.8,2.3c-0.5,0.6-1.1,0.9-1.8,0.9h-37.5c-0.8,0-1.4-0.3-1.8-0.9C543.9,75.6,543.6,74.8,543.6,73.9z"></path>
					  </g>
					  <g>
						  <path fill="#231F20" d="M171.4,109.7h2.2l2.8,11.1c0.4,1.6,0.7,3,0.9,4.2c0.2-1.5,0.5-3,1-4.4l3.2-10.9h2.2l3.4,11.1
							  c0.4,1.3,0.7,2.7,1,4.3c0.2-1.2,0.5-2.6,0.9-4.3l2.9-11.1h2.2l-4.8,18h-2.1l-3.6-12.1c-0.2-0.5-0.4-1.2-0.6-2
							  c-0.2-0.8-0.4-1.3-0.4-1.5c-0.2,1.1-0.5,2.3-0.9,3.6l-3.5,12h-2.1L171.4,109.7z"></path>
						  <path fill="#231F20" d="M196.5,127.7v-19.1h2v5.8c0,0.7,0,1.3-0.1,1.7h0.1c0.4-0.6,1-1.2,1.7-1.5c0.7-0.4,1.6-0.6,2.5-0.6
							  c1.6,0,2.9,0.4,3.7,1.2c0.8,0.8,1.2,2,1.2,3.7v8.8h-2V119c0-1.1-0.3-1.9-0.8-2.5c-0.5-0.5-1.3-0.8-2.4-0.8c-1.4,0-2.5,0.4-3.1,1.2
							  c-0.7,0.8-1,2-1,3.8v7.1H196.5z"></path>
						  <path fill="#231F20" d="M211.2,121c0-2.2,0.5-3.9,1.6-5.2c1.1-1.3,2.5-1.9,4.3-1.9c1.7,0,3,0.6,4,1.7c1,1.1,1.5,2.6,1.5,4.4v1.3
							  h-9.3c0,1.6,0.4,2.8,1.2,3.6c0.8,0.8,1.8,1.2,3.2,1.2c1.4,0,2.9-0.3,4.3-0.9v1.8c-0.7,0.3-1.4,0.5-2,0.7c-0.6,0.1-1.4,0.2-2.3,0.2
							  c-2,0-3.6-0.6-4.7-1.8C211.8,124.9,211.2,123.2,211.2,121z M213.4,119.6h7.1c0-1.3-0.3-2.3-0.9-3c-0.6-0.7-1.4-1-2.5-1
							  c-1.1,0-2,0.4-2.6,1.1C213.9,117.4,213.5,118.4,213.4,119.6z"></path>
						  <path fill="#231F20" d="M226.1,127.7v-13.5h1.7l0.2,2.5h0.1c0.5-0.9,1.1-1.6,1.8-2c0.7-0.5,1.5-0.7,2.3-0.7c0.6,0,1.1,0,1.6,0.1
							  l-0.3,1.9c-0.6-0.1-1.1-0.2-1.5-0.2c-1.1,0-2,0.4-2.8,1.3c-0.8,0.9-1.2,2-1.2,3.3v7.2H226.1z"></path>
						  <path fill="#231F20" d="M235.2,121c0-2.2,0.5-3.9,1.6-5.2c1.1-1.3,2.5-1.9,4.3-1.9c1.7,0,3,0.6,4,1.7c1,1.1,1.5,2.6,1.5,4.4v1.3
							  h-9.3c0,1.6,0.4,2.8,1.2,3.6c0.8,0.8,1.8,1.2,3.2,1.2c1.4,0,2.9-0.3,4.3-0.9v1.8c-0.7,0.3-1.4,0.5-2,0.7c-0.6,0.1-1.4,0.2-2.3,0.2
							  c-2,0-3.6-0.6-4.7-1.8C235.7,124.9,235.2,123.2,235.2,121z M237.3,119.6h7.1c0-1.3-0.3-2.3-0.9-3c-0.6-0.7-1.4-1-2.5-1
							  c-1.1,0-2,0.4-2.6,1.1C237.8,117.4,237.4,118.4,237.3,119.6z"></path>
						  <path fill="#231F20" d="M254.8,115.8v-1l1.9-0.8l0.9-2.9h1.2v3.1h3.9v1.6h-3.9v8c0,0.8,0.2,1.4,0.6,1.9c0.4,0.4,0.9,0.7,1.6,0.7
							  c0.4,0,0.7,0,1-0.1c0.3-0.1,0.6-0.1,0.8-0.2v1.5c-0.2,0.1-0.5,0.2-1,0.3c-0.4,0.1-0.8,0.1-1.2,0.1c-2.6,0-3.9-1.4-3.9-4.1v-8H254.8
							  z"></path>
						  <path fill="#231F20" d="M265.5,127.7v-19.1h2v5.8c0,0.7,0,1.3-0.1,1.7h0.1c0.4-0.6,1-1.2,1.7-1.5c0.7-0.4,1.6-0.6,2.5-0.6
							  c1.6,0,2.9,0.4,3.7,1.2c0.8,0.8,1.2,2,1.2,3.7v8.8h-2V119c0-1.1-0.2-1.9-0.8-2.5c-0.5-0.5-1.3-0.8-2.4-0.8c-1.4,0-2.5,0.4-3.1,1.2
							  c-0.7,0.8-1,2-1,3.8v7.1H265.5z"></path>
						  <path fill="#231F20" d="M280.2,121c0-2.2,0.5-3.9,1.6-5.2c1.1-1.3,2.5-1.9,4.3-1.9c1.7,0,3,0.6,4,1.7c1,1.1,1.5,2.6,1.5,4.4v1.3
							  h-9.3c0,1.6,0.4,2.8,1.2,3.6c0.8,0.8,1.8,1.2,3.2,1.2c1.4,0,2.9-0.3,4.3-0.9v1.8c-0.7,0.3-1.4,0.5-2,0.7c-0.6,0.1-1.4,0.2-2.3,0.2
							  c-2,0-3.6-0.6-4.7-1.8C280.8,124.9,280.2,123.2,280.2,121z M282.4,119.6h7.1c0-1.3-0.3-2.3-0.9-3c-0.6-0.7-1.4-1-2.5-1
							  c-1.1,0-2,0.4-2.6,1.1C282.9,117.4,282.5,118.4,282.4,119.6z"></path>
						  <path fill="#231F20" d="M299.8,114.2h2.2c0.9,3.4,1.5,6,2,7.7c0.5,1.8,0.7,3,0.7,3.6h0.1c0.1-0.5,0.2-1.1,0.4-1.8
							  c0.2-0.7,0.4-1.3,0.5-1.8l2.5-7.7h2.2l2.4,7.7c0.5,1.4,0.8,2.6,0.9,3.6h0.1c0-0.3,0.1-0.7,0.3-1.4c0.2-0.6,1-3.9,2.6-9.9h2.1
							  l-3.7,13.5h-2.4l-2.5-7.9c-0.2-0.5-0.4-1.6-0.9-3.3h-0.1c-0.3,1.4-0.6,2.5-0.9,3.3l-2.5,7.9h-2.4L299.8,114.2z"></path>
						  <path fill="#231F20" d="M320.5,120.9c0-2.2,0.5-3.9,1.6-5.1c1.1-1.2,2.6-1.8,4.6-1.8c1.9,0,3.4,0.6,4.5,1.9
							  c1.1,1.3,1.7,2.9,1.7,5.1c0,2.2-0.6,3.9-1.7,5.2c-1.1,1.2-2.6,1.9-4.6,1.9c-1.2,0-2.3-0.3-3.2-0.9c-0.9-0.6-1.7-1.4-2.2-2.4
							  C320.8,123.6,320.5,122.3,320.5,120.9z M322.6,120.9c0,1.7,0.3,3,1,3.9c0.7,0.9,1.7,1.4,3,1.4c1.3,0,2.4-0.4,3.1-1.3
							  c0.7-0.9,1-2.2,1-4c0-1.7-0.3-3-1-3.9c-0.7-0.9-1.7-1.3-3.1-1.3c-1.3,0-2.3,0.4-3,1.3C322.9,117.9,322.6,119.2,322.6,120.9z"></path>
						  <path fill="#231F20" d="M336.5,127.7v-13.5h1.7l0.2,2.5h0.1c0.5-0.9,1.1-1.6,1.8-2c0.7-0.5,1.5-0.7,2.3-0.7c0.6,0,1.1,0,1.6,0.1
							  L344,116c-0.6-0.1-1.1-0.2-1.5-0.2c-1.1,0-2,0.4-2.8,1.3c-0.8,0.9-1.2,2-1.2,3.3v7.2H336.5z"></path>
						  <path fill="#231F20" d="M346.8,127.7v-19.1h2v19.1H346.8z"></path>
						  <path fill="#231F20" d="M352.4,121c0-2.2,0.5-4,1.5-5.2c1-1.2,2.3-1.8,4.1-1.8c1.8,0,3.2,0.7,4.2,2h0.2l-0.1-1l0-0.9v-5.5h2v19.1
							  h-1.7l-0.3-1.8h-0.1c-0.9,1.4-2.4,2.1-4.2,2.1c-1.8,0-3.1-0.6-4.1-1.8C352.9,124.9,352.4,123.2,352.4,121z M354.5,121
							  c0,1.7,0.3,3,1,3.9c0.6,0.9,1.6,1.3,2.8,1.3c1.4,0,2.4-0.4,3-1.1c0.6-0.8,0.9-2,0.9-3.7V121c0-1.9-0.3-3.3-1-4.1
							  c-0.6-0.8-1.7-1.2-3.1-1.2c-1.2,0-2.1,0.5-2.8,1.4C354.8,118,354.5,119.3,354.5,121z"></path>
						  <path fill="#231F20" d="M374.4,121c0-2.3,0.5-4,1.6-5.2c1.1-1.2,2.6-1.8,4.6-1.8c0.6,0,1.3,0.1,1.9,0.2c0.6,0.1,1.2,0.3,1.5,0.5
							  l-0.6,1.7c-0.5-0.2-0.9-0.3-1.5-0.4c-0.5-0.1-1-0.2-1.4-0.2c-2.7,0-4.1,1.7-4.1,5.2c0,1.7,0.3,2.9,1,3.8c0.7,0.9,1.7,1.3,3,1.3
							  c1.1,0,2.3-0.2,3.5-0.7v1.8c-0.9,0.5-2,0.7-3.4,0.7c-2,0-3.5-0.6-4.5-1.8C374.9,124.9,374.4,123.2,374.4,121z"></path>
						  <path fill="#231F20" d="M386.4,120.9c0-2.2,0.5-3.9,1.6-5.1c1.1-1.2,2.6-1.8,4.6-1.8c1.9,0,3.4,0.6,4.5,1.9
							  c1.1,1.3,1.7,2.9,1.7,5.1c0,2.2-0.6,3.9-1.7,5.2c-1.1,1.2-2.6,1.9-4.6,1.9c-1.2,0-2.3-0.3-3.2-0.9c-0.9-0.6-1.7-1.4-2.2-2.4
							  C386.6,123.6,386.4,122.3,386.4,120.9z M388.5,120.9c0,1.7,0.3,3,1,3.9c0.7,0.9,1.7,1.4,3,1.4c1.3,0,2.4-0.4,3.1-1.3
							  c0.7-0.9,1-2.2,1-4c0-1.7-0.3-3-1-3.9c-0.7-0.9-1.7-1.3-3.1-1.3c-1.3,0-2.3,0.4-3,1.3C388.8,117.9,388.5,119.2,388.5,120.9z"></path>
						  <path fill="#231F20" d="M402.4,127.7v-13.5h1.7l0.3,1.8h0.1c0.4-0.6,0.9-1.2,1.6-1.5c0.7-0.4,1.5-0.5,2.4-0.5
							  c2.1,0,3.5,0.8,4.1,2.3h0.1c0.4-0.7,1-1.3,1.7-1.7c0.8-0.4,1.6-0.6,2.6-0.6c1.5,0,2.7,0.4,3.4,1.2s1.1,2,1.1,3.8v8.8h-2v-8.8
							  c0-1.1-0.2-1.9-0.7-2.4c-0.5-0.5-1.2-0.8-2.1-0.8c-1.3,0-2.2,0.4-2.8,1.1c-0.6,0.7-0.9,1.9-0.9,3.4v7.5h-2v-8.8
							  c0-1.1-0.2-1.9-0.7-2.4c-0.5-0.5-1.2-0.8-2.2-0.8c-1.3,0-2.2,0.4-2.8,1.2c-0.6,0.8-0.9,2-0.9,3.8v7.1H402.4z"></path>
						  <path fill="#231F20" d="M425.1,121c0-2.2,0.5-3.9,1.6-5.2c1.1-1.3,2.5-1.9,4.3-1.9c1.7,0,3,0.6,4,1.7c1,1.1,1.5,2.6,1.5,4.4v1.3
							  h-9.3c0,1.6,0.4,2.8,1.2,3.6c0.8,0.8,1.8,1.2,3.2,1.2c1.4,0,2.9-0.3,4.3-0.9v1.8c-0.7,0.3-1.4,0.5-2,0.7c-0.6,0.1-1.4,0.2-2.3,0.2
							  c-2,0-3.6-0.6-4.7-1.8C425.6,124.9,425.1,123.2,425.1,121z M427.2,119.6h7.1c0-1.3-0.3-2.3-0.9-3c-0.6-0.7-1.4-1-2.5-1
							  c-1.1,0-1.9,0.4-2.6,1.1C427.7,117.4,427.3,118.4,427.2,119.6z"></path>
						  <path fill="#231F20" d="M439.1,117.5c0-1.1,0.4-2,1.3-2.6c0.9-0.6,2.1-1,3.7-1c1.4,0,2.9,0.3,4.2,0.9l-0.7,1.7
							  c-1.3-0.6-2.6-0.8-3.7-0.8c-1,0-1.7,0.2-2.2,0.5c-0.5,0.3-0.7,0.7-0.7,1.3c0,0.4,0.1,0.7,0.3,0.9c0.2,0.3,0.5,0.5,0.9,0.7
							  c0.4,0.2,1.2,0.6,2.4,1c1.6,0.6,2.7,1.2,3.2,1.8c0.6,0.6,0.8,1.3,0.8,2.2c0,1.2-0.5,2.2-1.4,2.9c-0.9,0.7-2.2,1-3.9,1
							  c-1.8,0-3.2-0.3-4.2-0.8v-1.9c0.6,0.3,1.3,0.6,2.1,0.8c0.7,0.2,1.5,0.3,2.1,0.3c1.1,0,1.9-0.2,2.5-0.5c0.6-0.3,0.9-0.9,0.9-1.6
							  c0-0.5-0.2-1-0.7-1.4c-0.5-0.4-1.3-0.8-2.7-1.3c-1.3-0.5-2.2-0.9-2.7-1.2c-0.5-0.3-0.9-0.7-1.2-1.2
							  C439.2,118.7,439.1,118.1,439.1,117.5z"></path>
						  <path fill="#231F20" d="M456.7,115.8v-1l1.9-0.8l0.9-2.9h1.2v3.1h3.9v1.6h-3.9v8c0,0.8,0.2,1.4,0.6,1.9c0.4,0.4,0.9,0.7,1.6,0.7
							  c0.4,0,0.7,0,1-0.1c0.3-0.1,0.6-0.1,0.8-0.2v1.5c-0.2,0.1-0.5,0.2-1,0.3c-0.4,0.1-0.8,0.1-1.2,0.1c-2.6,0-3.9-1.4-3.9-4.1v-8H456.7
							  z"></path>
						  <path fill="#231F20" d="M466.7,120.9c0-2.2,0.5-3.9,1.6-5.1c1.1-1.2,2.6-1.8,4.6-1.8c1.9,0,3.4,0.6,4.5,1.9
							  c1.1,1.3,1.7,2.9,1.7,5.1c0,2.2-0.6,3.9-1.7,5.2c-1.1,1.2-2.6,1.9-4.6,1.9c-1.2,0-2.3-0.3-3.2-0.9c-0.9-0.6-1.7-1.4-2.2-2.4
							  C466.9,123.6,466.7,122.3,466.7,120.9z M468.8,120.9c0,1.7,0.3,3,1,3.9c0.7,0.9,1.7,1.4,3,1.4c1.3,0,2.4-0.4,3.1-1.3
							  c0.7-0.9,1-2.2,1-4c0-1.7-0.3-3-1-3.9c-0.7-0.9-1.7-1.3-3.1-1.3c-1.3,0-2.3,0.4-3,1.3C469.1,117.9,468.8,119.2,468.8,120.9z"></path>
						  <path fill="#231F20" d="M489,110.5c0-0.5,0.1-0.8,0.3-1c0.2-0.2,0.5-0.3,0.8-0.3c0.4,0,0.7,0.1,0.9,0.3c0.3,0.2,0.4,0.6,0.4,1
							  c0,0.5-0.1,0.8-0.4,1c-0.3,0.2-0.6,0.3-0.9,0.3c-0.3,0-0.6-0.1-0.8-0.3C489.1,111.3,489,111,489,110.5z M489.2,127.7v-13.5h1.9
							  v13.5H489.2z"></path>
						  <path fill="#231F20" d="M495.6,127.7v-13.5h1.7l0.3,1.8h0.1c0.4-0.7,1-1.2,1.8-1.5c0.8-0.4,1.6-0.5,2.5-0.5c1.6,0,2.8,0.4,3.7,1.2
							  s1.2,2,1.2,3.8v8.8h-2v-8.7c0-1.1-0.3-1.9-0.8-2.5c-0.5-0.5-1.3-0.8-2.3-0.8c-1.4,0-2.4,0.4-3.1,1.1c-0.7,0.8-1,2-1,3.8v7.1H495.6z
							  "></path>
						  <path fill="#231F20" d="M511,127.7v-13.5h1.7l0.3,1.8h0.1c0.4-0.7,1-1.2,1.8-1.5c0.8-0.4,1.6-0.5,2.5-0.5c1.6,0,2.8,0.4,3.7,1.2
							  c0.8,0.8,1.2,2,1.2,3.8v8.8h-2v-8.7c0-1.1-0.3-1.9-0.8-2.5c-0.5-0.5-1.3-0.8-2.3-0.8c-1.4,0-2.4,0.4-3.1,1.1c-0.7,0.8-1,2-1,3.8
							  v7.1H511z"></path>
						  <path fill="#231F20" d="M525.8,120.9c0-2.2,0.5-3.9,1.6-5.1c1.1-1.2,2.6-1.8,4.6-1.8c1.9,0,3.4,0.6,4.5,1.9
							  c1.1,1.3,1.7,2.9,1.7,5.1c0,2.2-0.6,3.9-1.7,5.2c-1.1,1.2-2.6,1.9-4.6,1.9c-1.2,0-2.3-0.3-3.2-0.9c-0.9-0.6-1.7-1.4-2.2-2.4
							  C526,123.6,525.8,122.3,525.8,120.9z M527.8,120.9c0,1.7,0.3,3,1,3.9c0.7,0.9,1.7,1.4,3,1.4c1.3,0,2.4-0.4,3.1-1.3
							  c0.7-0.9,1-2.2,1-4c0-1.7-0.3-3-1-3.9c-0.7-0.9-1.7-1.3-3.1-1.3c-1.3,0-2.3,0.4-3,1.3C528.2,117.9,527.8,119.2,527.8,120.9z"></path>
						  <path fill="#231F20" d="M539.1,114.2h2.2l2.9,8c0.7,1.9,1,3.1,1.2,3.6h0.1c0.1-0.4,0.4-1.3,0.9-2.7c0.5-1.4,1.6-4.3,3.2-8.9h2.2
							  l-5.1,13.5h-2.4L539.1,114.2z"></path>
						  <path fill="#231F20" d="M552.8,124c0-2.7,2.2-4.1,6.5-4.3l2.3-0.1v-0.8c0-1.1-0.2-1.9-0.7-2.4c-0.5-0.5-1.2-0.8-2.2-0.8
							  c-1.1,0-2.4,0.3-3.8,1l-0.6-1.6c0.7-0.4,1.4-0.6,2.2-0.8c0.8-0.2,1.6-0.3,2.4-0.3c1.6,0,2.8,0.4,3.6,1.1c0.8,0.7,1.2,1.9,1.2,3.4
							  v9.2h-1.5l-0.4-1.9h-0.1c-0.7,0.8-1.3,1.4-2,1.7c-0.7,0.3-1.5,0.4-2.5,0.4c-1.3,0-2.4-0.3-3.2-1C553.2,126.2,552.8,125.2,552.8,124
							  z M555,124c0,0.7,0.2,1.3,0.7,1.7c0.4,0.4,1.1,0.6,1.9,0.6c1.3,0,2.3-0.3,3-1.1c0.7-0.7,1.1-1.7,1.1-2.9V121l-2,0.1
							  c-1.6,0.1-2.8,0.3-3.5,0.8C555.4,122.3,555,123,555,124z"></path>
						  <path fill="#231F20" d="M566.1,115.8v-1l1.9-0.8l0.9-2.9h1.2v3.1h3.9v1.6h-3.9v8c0,0.8,0.2,1.4,0.6,1.9c0.4,0.4,0.9,0.7,1.6,0.7
							  c0.4,0,0.7,0,1-0.1c0.3-0.1,0.6-0.1,0.8-0.2v1.5c-0.2,0.1-0.5,0.2-1,0.3c-0.4,0.1-0.8,0.1-1.2,0.1c-2.6,0-3.9-1.4-3.9-4.1v-8H566.1
							  z"></path>
						  <path fill="#231F20" d="M576,121c0-2.2,0.5-3.9,1.6-5.2c1.1-1.3,2.5-1.9,4.3-1.9c1.7,0,3,0.6,4,1.7c1,1.1,1.5,2.6,1.5,4.4v1.3h-9.3
							  c0,1.6,0.4,2.8,1.2,3.6c0.8,0.8,1.8,1.2,3.2,1.2c1.4,0,2.9-0.3,4.3-0.9v1.8c-0.7,0.3-1.4,0.5-2,0.7c-0.6,0.1-1.4,0.2-2.3,0.2
							  c-2,0-3.6-0.6-4.7-1.8C576.6,124.9,576,123.2,576,121z M578.2,119.6h7.1c0-1.3-0.3-2.3-0.9-3c-0.6-0.7-1.4-1-2.5-1
							  c-1.1,0-2,0.4-2.6,1.1C578.6,117.4,578.3,118.4,578.2,119.6z"></path>
					  </g>
					  </svg>